<svg width="46" height="46" viewBox="0 0 46 46" fill="none" xmlns="http://www.w3.org/2000/svg">
<rect width="46" height="46" rx="10" fill="white"/>
<path d="M30.5 17.9831C27.725 17.7081 24.9333 17.5664 22.15 17.5664C20.5 17.5664 18.85 17.6497 17.2 17.8164L15.5 17.9831" stroke="#505050" stroke-width="1.5" stroke-linecap="round" stroke-linejoin="round"/>
<path d="M20.084 17.143L20.2673 16.0513C20.4007 15.2596 20.5007 14.668 21.909 14.668H24.0923C25.5007 14.668 25.609 15.293 25.734 16.0596L25.9173 17.143" stroke="#505050" stroke-width="1.5" stroke-linecap="round" stroke-linejoin="round"/>
<path d="M28.7077 20.6172L28.166 29.0089C28.0743 30.3172 27.9993 31.3339 25.6743 31.3339H20.3243C17.9993 31.3339 17.9243 30.3172 17.8327 29.0089L17.291 20.6172" stroke="#505050" stroke-width="1.5" stroke-linecap="round" stroke-linejoin="round"/>
<path d="M21.6074 26.75H24.3824" stroke="#505050" stroke-width="1.5" stroke-linecap="round" stroke-linejoin="round"/>
<path d="M20.916 23.418H25.0827" stroke="#505050" stroke-width="1.5" stroke-linecap="round" stroke-linejoin="round"/>
</svg>
