<svg width="44" height="44" viewBox="0 0 44 44" fill="none" xmlns="http://www.w3.org/2000/svg">
<rect width="44" height="44" rx="12" fill="#E2E3E5" fill-opacity="0.5"/>
<path d="M17.0498 14.5752H26.9498C27.7748 14.5752 28.4498 15.2502 28.4498 16.0752V17.7252C28.4498 18.3252 28.0748 19.0752 27.6998 19.4502L24.4748 22.3002C24.0248 22.6752 23.7248 23.4252 23.7248 24.0252V27.2502C23.7248 27.7002 23.4248 28.3002 23.0498 28.5252L21.9998 29.2002C21.0248 29.8002 19.6748 29.1252 19.6748 27.9252V23.9502C19.6748 23.4252 19.3748 22.7502 19.0748 22.3752L16.2248 19.3752C15.8498 19.0002 15.5498 18.3252 15.5498 17.8752V16.1502C15.5498 15.2502 16.2248 14.5752 17.0498 14.5752Z" stroke="#232323" stroke-width="1.5" stroke-miterlimit="10" stroke-linecap="round" stroke-linejoin="round"/>
<path d="M21.1975 14.5752L17.5 20.5002" stroke="#232323" stroke-width="1.5" stroke-miterlimit="10" stroke-linecap="round" stroke-linejoin="round"/>
</svg>
